_________________________  Visit us at _________________________
  
http://p2pdl.com  ____________________________  http://p2pdl.com


Mama 2013 BRRip 720p x264 AAC - PRiSTiNE [P2PDL]

Genre: Horror
Plot: Annabel and Lucas are faced with the challenge of 
raising his young nieces that were left alone in the 
forest for 5 years.... but how alone were they?
Director: Andrés Muschietti
Stars: Jessica Chastain, Nikolaj Coster-Waldau, Megan Charpentier
Rated: Rated PG-13 for violence and terror, some disturbing images and thematic elements

Info: 
http://www.imdb.com/title/tt2023587/

General
Complete name                  : Mama 2013 BRRip 720p x264 AAC - PRiSTiNE.mp4
Format                         : MPEG-4
File size                      : 646 MiB
Duration                       : 1h 40mn
Overall bit rate mode          : Variable
Overall bit rate               : 902 Kbps

Video
Format                         : AVC
Format/Info                    : Advanced Video Codec
Format profile                 : High 10@L4.1
Bit rate                       : 819 Kbps
Width                          : 1 280 pixels
Height                         : 688 pixels
Display aspect ratio           : 1.85:1
Frame rate mode                : Constant
Frame rate                     : 23.976 fps
Bit depth                      : 10 bits
Stream size                    : 586 MiB (91%)
Writing library                : x264 core 130 r2273 b3065e6

Audio
Format                         : AAC
Bit rate mode                  : Variable
Bit rate                       : 79.9 Kbps
Channel(s)                     : 2 channels
Channel positions              : Front: L R
Sampling rate                  : 48.0 KHz / 24.0 KHz
Stream size                    : 57.2 MiB (9%)

Subtitle                       : Yes (English)
Source                         : 720p.BluRay.DTS-5.1.x264-AXED (Thanks)

Screenshots:
 
http://www.ultraimg.com/images/iPXF.jpg 
http://www.ultraimg.com/images/rSNj6.jpg 
http://www.ultraimg.com/images/sIghE.jpg 
http://www.ultraimg.com/images/L8GAU.jpg 
http://www.ultraimg.com/images/90Ses.jpg

----------------------------------------------------------------------------------------------------


Encoded using revolutionary 10bit encoding, which enables us to provide you more crispier 
and sharper images at small sizes, just make sure you follow our instructions without a fault.
Recommend to you to use latest version of VLC player. Install K-Lite Codec Pack or shark007 codecs
in case of any kind of problem in playback (For non-VLC Media Player users). Alternatively, install
Core AVC codecs, the fastest decoder that there is coupled with Community Center Codec Pack and play
on Windows Media Player Classic. Check sample to be sure.
Enjoy!

Encoder Notes:Looking For Early Access To Anything You Can Provide DVDScr, R5, DVDR, BluRay, Direct
Audio, Music Releases and Seedboxes. We require dedicated servers, so as to do more 
and fast releases of movies.
If You Got anything to offer please contact us at "prg@hush.com".

Face book Fan Page:   
http://www.fb.me/p2pdl